<svg height="463" viewBox="0 0 463 463" width="463" xmlns="http://www.w3.org/2000/svg" xmlns:xlink="http://www.w3.org/1999/xlink"><linearGradient id="a" gradientUnits="userSpaceOnUse" x1="231.539" x2="231.539" y1="29.15" y2="433.771"><stop offset=".00001"/><stop offset="1" stop-color="#fff" stop-opacity=".99608"/></linearGradient><radialGradient id="b" cx="373.536174" cy="89.458583" gradientUnits="userSpaceOnUse" r="352.510134"><stop offset=".00001" stop-color="#acacac"/><stop offset="1"/></radialGradient><linearGradient id="c"><stop offset=".00001" stop-color="#aed3ff"/><stop offset=".21015" stop-color="#d6e9ff" stop-opacity=".13245"/><stop offset=".77785" stop-color="#c2deff" stop-opacity=".13245"/><stop offset="1" stop-color="#aed3ff"/></linearGradient><linearGradient id="d" gradientUnits="userSpaceOnUse" x1="231.537" x2="231.537" xlink:href="#c" y1="357.35" y2="105.574"/><linearGradient id="e" gradientUnits="userSpaceOnUse" x1="231.539" x2="231.539" y1="170.87" y2="231.46"><stop offset=".00001" stop-color="#fff"/><stop offset="1" stop-color="#fff" stop-opacity=".037931"/></linearGradient><filter id="f" color-interpolation-filters="sRGB" filterUnits="userSpaceOnUse" height="463" width="463" x="0" y="0"><feGaussianBlur stdDeviation=".810702"/></filter><linearGradient id="g" gradientUnits="userSpaceOnUse" x1="231.55577" x2="226.553975" y1="152.393559" y2="211.453333"><stop offset=".00001" stop-color="#fff"/><stop offset="1" stop-color="#fff" stop-opacity=".053137"/></linearGradient><linearGradient id="h" gradientUnits="userSpaceOnUse" x1="196.424624" x2="206.112176" y1="57.860125" y2="170.131032"><stop offset=".00001" stop-color="#2a5e89"/><stop offset="1" stop-color="#2a5e89" stop-opacity="0"/></linearGradient><linearGradient id="i" gradientUnits="userSpaceOnUse" x1="231.537385" x2="231.537385" xlink:href="#c" y1="340.849388" y2="122.073668"/><radialGradient id="j" cx="225.5359" cy="354.622184" gradientUnits="userSpaceOnUse" r="75.0008"><stop offset=".00001" stop-color="#042b76"/><stop offset="1" stop-color="#2e75f8"/></radialGradient><linearGradient id="k" gradientUnits="userSpaceOnUse" x1="231.539" x2="238.289" y1="315.73" y2="275.46"><stop offset=".00001" stop-color="#89269d"/><stop offset=".33681" stop-color="#a40000"/><stop offset="1" stop-color="#89269d" stop-opacity="0"/></linearGradient><linearGradient id="l" gradientUnits="userSpaceOnUse" x1="233.0355" x2="245.53098" y1="167.452" y2="125.452"><stop offset=".00001" stop-color="#2ad4ff"/><stop offset="1" stop-color="#2ad4ff" stop-opacity="0"/></linearGradient><linearGradient id="m"><stop offset=".00001" stop-color="#cdd0ce"/><stop offset="1" stop-color="#cdd0ce" stop-opacity="0"/></linearGradient><linearGradient id="n" gradientUnits="userSpaceOnUse" x1="46.447481" x2="72.983151" xlink:href="#m" y1="233.326832" y2="170.398388"/><linearGradient id="o" gradientUnits="userSpaceOnUse" x1="47.183456" x2="78.71752" xlink:href="#m" y1="220.185223" y2="160.961892"/><filter id="p" color-interpolation-filters="sRGB" filterUnits="userSpaceOnUse" height="463" width="463" x="0" y="0"><feGaussianBlur stdDeviation=".597639"/></filter><filter id="q" color-interpolation-filters="sRGB" filterUnits="userSpaceOnUse" height="463" width="463" x="0" y="0"><feGaussianBlur stdDeviation=".805682"/></filter><linearGradient id="r" gradientUnits="userSpaceOnUse" x1="48.261301" x2="82.434684" xlink:href="#m" y1="213.193324" y2="156.364251"/><path d="m418.539001 231.453979c0 103.277253-83.722747 187-187 187-103.277252 0-187-83.722747-187-187 0-103.277221 83.722748-186.999969 187-186.999969 103.277253 0 187 83.722748 187 186.999969z" fill="#212121" stroke="#000" stroke-linecap="round" stroke-linejoin="round" stroke-width="3.5433"/><path d="m432.30899 231.460007c0-110.63002-90.139984-200.780014-200.769989-200.780014-110.630004 0-200.78 90.149994-200.78 200.780014.004997 110.62001 90.149996 200.770004 200.78 200.770004 110.630005 0 200.769989-90.149994 200.769989-200.770004zm-36.869995 0c0 90.669998-73.220001 163.900039-163.899994 163.900039-90.679992 0-163.900001-73.230041-163.900001-163.900039 0-90.680008 73.220009-163.910019 163.900001-163.910019 90.679993 0 163.899994 73.230011 163.899994 163.910019z" fill="#a3a3a3" stroke="url(#a)" stroke-linecap="round" stroke-linejoin="round" stroke-width="3.0725"/><path d="m231.539001-.080017c-127.580001 0-231.540002 103.959991-231.540002 231.540024.001 127.570022 103.960001 231.539962 231.540002 231.539962 127.579987 0 231.540009-103.96994 231.540009-231.539962 0-127.580033-103.960022-231.540024-231.540009-231.540024zm0 42.520019c104.570008 0 189.019989 84.449982 189.019989 189.020005 0 104.570022-84.449981 189.020035-189.019989 189.020035-104.570007 0-189.019996-84.450013-189.019996-189.020035 0-104.570023 84.449989-189.020005 189.019996-189.020005z" fill="url(#b)"/><g fill="none" stroke-linecap="round" stroke-linejoin="round"><path d="m231.537003 106.459991c69.035598 0 124.999984 55.964417 124.999984 125.000016 0 69.035598-55.964386 124.999984-124.999984 124.999984-69.035599 0-125-55.964386-125-124.999984 0-69.035599 55.964401-125.000016 125-125.000016z" stroke="url(#d)" stroke-width="1.7717"/><path d="m231.539001 284.960022c-28.442672 0-51.499984-23.952789-51.499984-53.500015 0-29.547257 23.057312-53.500016 51.499984-53.500016 28.442658 0 51.5 23.952759 51.5 53.500016 0 29.547226-23.057342 53.500015-51.5 53.500015z" filter="url(#f)" stroke="url(#e)" stroke-width="8.8583"/><path d="m231.555771 301.269592c-38.554047 0-69.808228-31.255951-69.808228-69.812149s31.254181-69.812149 69.808228-69.812149c38.554031 0 69.808243 31.255951 69.808243 69.812149s-31.254212 69.812149-69.808243 69.812149z" opacity=".55517" stroke="url(#g)" stroke-width="6.379107"/></g><path d="m231.539001 67.320007c-69.050003 0-126.979995 47.899994-142.339996 112.269989h284.679993c-15.359986-64.369995-73.290009-112.269989-142.339997-112.269989z" fill="url(#h)"/><path d="m231.537384 122.843536c59.987091 0 108.616241 48.629151 108.616241 108.616257s-48.62915 108.616257-108.616241 108.616257c-59.987106 0-108.616249-48.629151-108.616249-108.616257s48.629143-108.616257 108.616249-108.616257z" fill="none" stroke="url(#i)" stroke-linecap="round" stroke-linejoin="round" stroke-width="1.539483"/><path d="m225.539001 289c-41.399993 0-75 29.400024-75 65.630005 0 6.580017 1.130005 12.910034 3.190003 18.900024 23.48999 12.989991 50.509994 20.380005 79.309997 20.380005 21.350007 0 41.720002-4.049988 60.410004-11.440002 4.540009-8.450012 7.089996-17.890015 7.089996-27.840027 0-36.229981-33.600006-65.630005-75-65.630005z" fill="url(#j)" opacity=".34138"/><path d="m270.539001 167.451996c0 11.597992-17.460891 21-39 21-21.539108 0-39-9.402008-39-21 0-11.597962 17.460892-21 39-21 21.539109 0 39 9.402038 39 21z" fill="#5fd3bc" opacity=".3838"/><path d="m254.049011 235.189987-46.940002 1.160004-9.320008 72.999985c9.520005 4.040039 20.630005 6.370056 32.5 6.370056 12.920014 0 24.950013-2.77002 35-7.490052z" fill="url(#k)" opacity=".92759"/><path d="m298.536011 146.451996c0 11.597992-29.325592 21-65.500504 21-36.174942 0-65.500503-9.402008-65.500503-21 0-11.597962 29.325561-21 65.500503-21 36.174912 0 65.500504 9.402038 65.500504 21z" fill="url(#l)" opacity=".3838"/><path d="m416.472656 233.326828c0 102.133865-82.795837 184.929733-184.929718 184.929733-102.13385 0-184.929718-82.795868-184.929718-184.929733s82.795868-184.929733 184.929718-184.929733c102.133881 0 184.929718 82.795868 184.929718 184.929733z" style="fill:none;stroke-width:.330937;stroke-linecap:round;stroke-linejoin:round;opacity:.67606;stroke:url(#n)"/><path d="m409.233856 252.939056c-9.040649 99.932679-97.381012 173.615204-197.31369 164.574555-99.932671-9.04068-173.615211-97.381043-164.574543-197.313721 9.040669-99.932678 97.381031-173.615204 197.313694-164.574554 99.932693 9.04068 173.615219 97.381042 164.574539 197.31372z" style="fill:none;stroke-width:.325127;stroke-linecap:round;stroke-linejoin:round;opacity:.67606;stroke:url(#o)"/><path d="m229.539001 43.419983c-104.570007 0-189.029998 84.459991-189.029998 189.040024-.001 104.570022 84.459991 189.029983 189.029998 189.029983 104.570008 0 189.029999-84.459961 189.029999-189.029983 0-104.580033-84.459991-189.040024-189.029999-189.040024z" fill="none" stroke="#000" stroke-linecap="round" stroke-linejoin="round" stroke-width="3.5433"/><path d="m239.012146 219.247665-13.621674 5.153626-11.970947-7.626923 1.650726-12.780533 13.621674-5.148193 11.970947 7.626923z" fill="#ff7f2a" filter="url(#p)" opacity=".67606"/><path d="m259.778687 233.326782-17.120865 7.491379-15.046097-11.086594 2.074768-18.577987 17.12088-7.483445 15.046112 11.086594z" fill="#636667" filter="url(#q)" opacity=".67606"/><path d="m403.914917 264.164001c-14.068848 98.167054-105.054016 166.342103-203.221069 152.273224-98.167038-14.068847-166.342102-105.054046-152.273247-203.221069 14.068859-98.167053 105.054054-166.342102 203.221077-152.273254 98.167068 14.068847 166.342087 105.054046 152.273239 203.221099z" style="fill:none;stroke-width:.321334;stroke-linecap:round;stroke-linejoin:round;opacity:.67606;stroke:url(#r)"/></svg>