<svg height="482" viewBox="0 0 442 482" width="442" xmlns="http://www.w3.org/2000/svg"><g fill="#fff"><path d="m222.075439 447.790375c185.866669 84.589386 292.291077-336.013825 83.417481-318.928986-47.465942 11.682953-107.049835 21.695465-169.615677 1.515961-220.063515-22.070679-86.153774 395.624969 86.19458 317.415344z"/><path d="m242.511459 59.526276c-7.394012-21.165802-8.156479-29.458649-4.576965-29.321442 21.307053-4.017151 29.869583 9.28595 39.361832 21.324982-13.177704.475982-18.049317 5.559173-22.88472 10.662536-15.974182 28.461182-17.486572 49.815216-23.799957 72.414765l-24.715226 1.777038c18.361084-17.393188 27.098496-52.505035 36.615204-76.857605z"/><path d="m205.980469 100.679688c-69.075882.093139-181.86954-54.187989-106.308594-73.201172 49.598526-12.479645 111.759155 7.509369 127.724609 70.957031-6.355987 1.529724-13.607437 2.233612-21.416015 2.244141zm4.021484-14.607422c-55.260544-38.275422-82.568283-41.075379-122.683594-43.939453z" fill-rule="evenodd"/></g></svg>