<svg height="482" viewBox="0 0 442 482" width="442" xmlns="http://www.w3.org/2000/svg"><g fill="#fff"><path d="m222.850601 468.580017c205.069992 93.32898 322.489975-370.730011 92.035996-351.880005-52.370026 12.889984-118.110001 23.936981-187.14 1.672577-242.799995-24.350983-95.054992 436.500031 95.100006 350.209992z"/><path d="m245.398026 40.201324c-8.157944-23.352569-8.999177-32.502258-5.049836-32.35086 23.508438-4.43219 32.955612 10.245331 43.428604 23.528259-14.539215.525116-19.914154 6.133515-25.249115 11.76413-17.624603 31.401733-19.293258 54.962036-26.258926 79.896484l-27.268753 1.960663c20.258118-19.190216 29.898254-57.929718 40.398209-84.79837z"/><path d="m205.09375 85.607422c-76.212662.102783-200.660706-59.786072-117.292969-80.763672 54.722931-13.769012 123.304947 8.28418 140.919922 78.287109-7.01268 1.687775-15.011612 2.464936-23.626953 2.476563zm4.4375-16.117188c-60.96994-42.22995-91.101395-45.320495-135.361328-48.480468z" fill-rule="evenodd"/></g></svg>